<svg xmlns="http://www.w3.org/2000/svg" xmlns:xlink="http://www.w3.org/1999/xlink" viewBox="0,0,256,256" width="50px" height="50px"><g fill="#ffffff" fill-rule="nonzero" stroke="none" stroke-width="1" stroke-linecap="butt" stroke-linejoin="miter" stroke-miterlimit="10" stroke-dasharray="" stroke-dashoffset="0" font-family="none" font-weight="none" font-size="none" text-anchor="none" style="mix-blend-mode: normal"><g transform="scale(5.12,5.12)"><path d="M25,3c-12.683,0 -23,9.645 -23,21.5c-0.102,15.211 16.56355,25.18509 30.93555,20.24609c0.71,-0.244 0.92472,-1.14787 0.38672,-1.67187l-6.9707,-6.80859c-0.202,-0.197 -0.47877,-0.29139 -0.75977,-0.27539c-6.259,0.346 -11.6128,-4.92023 -11.5918,-11.49023c0,-6.341 4.935,-11.5 11,-11.5c6.29,-0.046 11.32514,5.64484 10.99414,12.08984c-0.015,0.29 0.08888,0.57144 0.29688,0.77344l8.09961,7.82617c0.496,0.479 1.30642,0.31922 1.60742,-0.30078c6.864,-14.136 -4.63305,-30.59667 -20.99805,-30.38867zM22,21c-0.553,0 -1,0.447 -1,1v5.72852c0,0.269 0.10878,0.52684 0.30078,0.71484l5.69922,5.58789v-7.03125h7.6543l-5.88281,-5.7168c-0.188,-0.181 -0.43726,-0.2832 -0.69727,-0.2832zM37.2207,29.49219l-7.7207,0.00781v6.98242l10.4375,10.23242c0.188,0.184 0.43722,0.28516 0.69922,0.28516h6.36328c0.553,0 1,-0.447 1,-1v-5.60937c0,-0.271 -0.10873,-0.5298 -0.30273,-0.7168z"></path></g></g></svg>